<svg width="150" height="40" xmlns="http://www.w3.org/2000/svg">
  <defs>
    <style>
      .button-bg { fill: #25D366; }
      .button-text { font-family: -apple-system, BlinkMacSystemFont, 'Segoe UI', sans-serif; font-size: 13px; font-weight: 600; fill: white; }
      .button-icon { fill: white; }
    </style>
  </defs>
  
  <rect class="button-bg" width="150" height="40" rx="6"/>
  
  <!-- WhatsApp Icon -->
  <g transform="translate(8, 8)">
    <path class="button-icon" d="M12 0C5.38 0 0 5.38 0 12c0 2.13.64 4.11 1.73 5.78L0 24l6.36-1.69C8.63 23.29 10.27 24 12 24c6.62 0 12-5.38 12-12S18.62 0 12 0zm0 21.59c-1.53 0-3.01-.39-4.29-1.12l-.31-.17-3.2.85.87-3.14-.2-.3C2.02 15.98 1.41 14.08 1.41 12c0-5.56 4.53-10.09 10.09-10.09 2.67 0 5.18 1.04 7.07 2.93 1.89 1.89 2.93 4.4 2.93 7.07 0 5.56-4.53 10.09-10.09 10.09zm5.5-7.51c-.3-.15-1.78-.88-2.05-.98-.27-.1-.47-.15-.66.15-.2.3-.77.98-.94 1.18-.17.2-.35.22-.65.07-1.75-.88-2.9-1.55-4.05-3.55-.28-.49.28-.45 1.05-1.49.12-.17.06-.31-.02-.43-.08-.12-.66-1.59-.91-2.18-.24-.58-.48-.5-.66-.51h-.58c-.2 0-.52.07-.79.36-2.79 2.79 1.5 9.28 7.36 10.96 1.45.38 2.34 1.15 2.84 1.99 1.24 1.97 2.13 3.1 3.45 3.1.84 0 1.71-.32 2.47-.93.34-.27.92-.94.92-1.95 0-1.03-.53-1.84-1.65-2.33z"/>
  </g>
  
  <text class="button-text" x="40" y="26">WhatsApp</text>
</svg>
