<svg width="150" height="40" xmlns="http://www.w3.org/2000/svg">
  <defs>
    <style>
      .button-bg { fill: #0084FF; }
      .button-text { font-family: -apple-system, BlinkMacSystemFont, 'Segoe UI', sans-serif; font-size: 13px; font-weight: 600; fill: white; }
      .button-icon { fill: white; }
    </style>
  </defs>
  
  <rect class="button-bg" width="150" height="40" rx="6"/>
  
  <!-- Community/Group Icon -->
  <g transform="translate(7, 8)">
    <path class="button-icon" d="M12 12c2.21 0 4-1.79 4-4s-1.79-4-4-4-4 1.79-4 4 1.79 4 4 4zm0 2c-2.67 0-8 1.34-8 4v2h16v-2c0-2.66-5.33-4-8-4zm8-8c1.1 0 2-0.9 2-2s-0.9-2-2-2-2 0.9-2 2 0.9 2 2 2zm0 2.5c-1.38 0-4.12 0.69-4.12 1.5 0 0.28 0.15 0.54 0.4 0.77 2.86-0.7 4.61-0.77 5.34-0.2 0.2-0.22 0.38-0.5 0.38-0.77 0-0.81-2.74-1.5-4.12-1.5zM0 13.75c0-0.81 2.74-1.5 4.12-1.5 0.38 0 0.74 0.04 1.07 0.11C4.3 11.17 3.42 10 2 10c-1.1 0-2 0.9-2 2s0.9 2 2 2h4v2c0 2.66 5.33 4 8 4h-8c-2.67 0-8-1.34-8-4v-2z"/>
  </g>
  
  <text class="button-text" x="37" y="26">Community</text>
</svg>
